<svg version="1.1" id="Layer_1" xmlns="http://www.w3.org/2000/svg" xmlns:xlink="http://www.w3.org/1999/xlink" x="0px" y="0px"
	 width="100%" viewBox="0 0 1024 608" enable-background="new 0 0 1024 608" xml:space="preserve">
<path fill="#000000" opacity="1.000000" stroke="none" 
	d="
M571.268127,288.539764 
	C573.417908,286.971954 574.089600,284.846558 574.963806,282.896393 
	C578.298157,275.457825 577.756836,274.833801 569.943604,274.522980 
	C567.038696,274.407440 564.153503,273.840729 561.176025,273.811401 
	C558.368164,273.783783 556.360291,271.615112 555.262817,269.018738 
	C554.293884,266.726593 553.571289,264.327393 552.797058,261.956787 
	C552.101013,259.825439 550.933228,258.188477 548.470947,259.028229 
	C545.981689,259.877136 544.321350,261.853729 545.718567,264.442413 
	C547.885193,268.456665 545.914673,270.183228 542.303406,271.907623 
	C540.575012,265.915894 535.693542,261.961517 533.878357,256.125214 
	C532.446960,251.522888 527.641357,249.869110 524.261963,246.986526 
	C523.559998,246.387817 522.718079,246.417847 522.011963,247.090637 
	C521.321350,247.748734 521.324890,248.601654 521.584412,249.411163 
	C522.362122,251.837173 523.531799,253.976990 525.776672,255.429199 
	C527.408752,256.485016 529.461670,257.077423 530.388000,259.267212 
	C529.794800,261.110199 528.621521,262.579803 526.541931,264.445404 
	C524.058594,257.564941 516.474304,256.251831 513.204956,250.430878 
	C512.537415,249.242310 511.077026,248.092102 509.930420,248.455063 
	C504.668945,250.120605 498.543488,248.788330 494.275391,254.132401 
	C490.880981,258.382446 487.103058,262.021912 484.978607,267.375061 
	C482.830139,272.788727 468.531830,275.279633 463.739655,271.809540 
	C461.734161,270.357361 461.660126,268.012054 461.627289,265.906586 
	C461.560028,261.587402 461.749390,257.259521 461.966614,252.941940 
	C462.165405,248.990585 463.914093,247.108261 468.170074,248.393051 
	C470.378754,249.059814 472.723236,249.400787 475.030609,249.584427 
	C477.795959,249.804550 480.453186,249.247803 481.918823,246.530029 
	C483.467316,243.658722 482.172974,241.124115 480.815399,238.534058 
	C479.306000,235.654327 475.449158,235.244690 473.987915,231.853790 
	C477.765930,229.724335 482.572937,229.717407 485.188049,225.551605 
	C483.781647,223.595398 481.754883,224.084579 479.881195,224.410049 
	C472.663971,225.663803 472.687866,225.693680 472.668091,218.793411 
	C472.665833,218.005569 472.309723,217.218750 471.988586,215.902390 
	C469.385895,217.035233 467.084717,218.238983 464.652832,219.051392 
	C460.189697,220.542358 458.590118,218.903885 459.240723,214.274811 
	C459.905121,209.547821 461.631836,205.696884 466.098511,203.473785 
	C467.437592,202.807312 467.778412,201.504349 468.148712,200.204605 
	C468.649841,198.445526 469.116608,196.666916 469.772705,194.963959 
	C470.814331,192.260391 472.413025,188.796783 475.361908,189.534866 
	C477.945862,190.181641 481.272125,193.038101 481.260712,196.007874 
	C481.237762,201.954666 484.924011,206.135071 487.798157,210.176727 
	C490.452484,213.909332 492.187714,216.705978 489.311279,221.275391 
	C493.410248,221.573776 495.334900,219.643341 496.794006,217.214813 
	C498.488495,214.394531 500.559570,212.184814 503.805176,211.195007 
	C507.594025,210.039581 508.445831,207.463074 507.526520,203.769501 
	C506.343872,199.017883 507.518097,197.565735 512.772949,196.663956 
	C514.480469,198.666031 513.223816,200.770401 512.877075,202.804611 
	C512.355164,205.866455 513.781067,207.951614 516.544800,208.333786 
	C520.419067,208.869476 524.269836,208.410309 528.267639,207.814850 
	C535.441284,206.746368 540.934937,205.514709 540.198425,196.669418 
	C544.512085,194.161148 545.668701,189.263748 548.531616,185.657623 
	C539.082703,182.452118 537.393555,173.886261 544.818420,166.791000 
	C545.419800,166.216293 546.066101,165.686005 546.714417,165.163544 
	C548.531494,163.699265 549.475220,161.988190 547.296875,160.231674 
	C545.272095,158.598984 543.004028,158.836105 541.807190,161.215393 
	C539.934448,164.938278 536.892944,167.405960 533.837646,170.012665 
	C530.005127,173.282608 529.151184,177.593231 531.824036,181.577957 
	C533.676392,184.339554 533.397339,186.473541 531.495300,188.772217 
	C529.530273,191.147018 528.185425,193.681961 528.318054,196.929276 
	C528.472839,200.719437 525.075684,202.191162 522.619812,203.004578 
	C519.411682,204.067184 519.791687,200.196991 518.762817,198.365356 
	C518.195496,197.355408 517.818054,196.235168 517.392212,195.150070 
	C514.826355,188.611725 514.853455,188.654419 508.743073,191.911011 
	C505.599304,193.586533 503.100220,192.581314 501.956146,189.330933 
	C500.856262,186.205978 500.206848,182.913864 499.482269,179.667786 
	C498.690674,176.121231 500.652802,173.694763 503.503021,172.404297 
	C514.131531,167.592041 519.011841,157.770218 524.713501,148.643738 
	C525.729187,147.017899 525.612793,146.945175 525.447205,143.075424 
	C532.015564,138.111176 539.442017,135.270798 547.463623,134.146027 
	C550.857544,133.670120 554.216309,133.780350 557.588074,132.448166 
	C559.913940,131.529205 562.568481,132.540833 564.665833,134.836258 
	C567.198242,137.607895 570.309692,140.031403 574.100037,140.869766 
	C579.463135,142.056015 583.671814,145.462936 588.424377,147.810577 
	C589.732483,148.456741 591.157288,149.394516 591.093933,151.138321 
	C591.021362,153.134857 589.313049,153.814438 587.799438,154.482819 
	C583.636963,156.320740 579.287476,154.835388 574.768005,154.930374 
	C574.165710,157.521957 574.048035,159.907425 575.336975,162.211792 
	C575.910400,163.237015 577.469177,164.769669 577.699402,164.428223 
	C580.545593,160.207504 587.460876,165.667572 589.502563,159.191071 
	C590.317322,156.606613 593.507751,155.829575 596.250671,155.656342 
	C599.174011,155.471725 600.032593,154.163193 599.265625,151.384430 
	C598.922180,150.140182 598.811951,148.737900 598.995667,147.465042 
	C599.234985,145.807434 600.391541,144.751328 602.169495,145.013626 
	C604.000000,145.283630 604.397705,146.332199 604.094604,148.255203 
	C603.529663,151.838852 605.428772,153.231781 608.557495,151.525406 
	C611.167175,150.102127 613.527771,148.204514 615.932678,146.427689 
	C618.997070,144.163605 622.010986,142.279846 625.684326,145.366623 
	C626.225525,145.821381 627.208069,145.877060 627.990967,145.892914 
	C629.866272,145.930923 638.067383,143.474899 640.186401,142.354233 
	C641.077271,140.393982 638.088318,139.300507 639.070374,137.315292 
	C646.928162,138.304520 654.496033,140.109619 660.975220,144.512070 
	C662.891418,142.541107 661.882324,141.386673 661.067200,140.074677 
	C658.002625,135.141983 662.414307,124.304108 668.009583,122.885353 
	C672.250610,121.809998 674.667114,123.837402 673.661926,128.005951 
	C672.611145,132.363739 673.487854,136.872299 674.280823,140.763229 
	C675.363770,146.076630 674.294495,149.778351 671.159607,153.548691 
	C670.917358,153.840103 671.042480,154.437042 670.950500,155.354462 
	C675.146240,154.621048 677.844116,152.015472 679.112915,148.764389 
	C680.293030,145.740463 681.181274,143.313507 685.332275,143.948273 
	C683.288330,140.575668 677.371521,143.088745 677.989502,138.571243 
	C678.464600,135.098099 675.153564,131.055771 678.902344,128.163742 
	C681.106201,127.819740 681.153931,129.722198 682.160767,130.445206 
	C683.451721,131.372314 684.962585,131.589066 685.343384,129.837738 
	C686.775085,123.253769 690.530151,124.100830 694.969360,126.512024 
	C695.343262,126.715111 695.923218,126.538895 696.654663,126.538895 
	C697.234924,123.912567 694.021179,121.034615 697.175903,118.753281 
	C699.639709,116.971649 702.466553,116.918373 705.306091,116.961800 
	C708.534973,117.011185 710.640259,116.179558 710.945618,112.312454 
	C711.268127,108.227760 714.571960,107.407036 718.087891,106.705124 
	C725.311340,105.263016 732.599915,104.099236 739.670349,101.888046 
	C742.231934,101.086945 743.948914,99.510391 745.735840,97.744209 
	C748.818848,94.696861 751.905640,93.404419 755.510986,97.368294 
	C757.802124,99.887299 760.666443,101.170044 764.498718,100.114105 
	C768.532043,99.002785 771.909363,101.679230 774.993958,103.741356 
	C777.491760,105.411118 776.007202,107.655632 774.120056,109.063675 
	C770.519470,111.750183 766.802063,114.281418 763.105774,116.837479 
	C761.772156,117.759682 760.089050,118.230438 758.996521,120.203117 
	C761.301025,121.124023 763.404419,121.077087 765.220764,119.873131 
	C768.200439,117.898163 771.637329,118.842651 774.535889,118.148918 
	C782.893005,116.148758 789.638672,121.115410 797.253296,121.790329 
	C799.358765,121.976936 800.777832,122.122169 802.499268,120.357681 
	C805.839600,116.933868 809.697266,119.905319 813.182007,120.551941 
	C816.224609,121.116501 817.070190,123.863441 816.383972,126.887550 
	C815.845276,129.261230 817.238525,130.631058 818.998474,131.790451 
	C820.752441,132.945969 822.338928,132.849823 823.990845,131.432755 
	C827.570618,128.362091 831.580017,131.722672 835.468140,130.799835 
	C838.891724,129.987228 842.358643,131.709183 844.326233,126.279648 
	C846.179260,121.166161 854.711548,122.465286 859.658325,128.343323 
	C863.922241,124.991859 867.395752,126.557655 871.378113,129.802826 
	C875.954651,133.532166 881.730042,135.365417 887.786987,134.369095 
	C892.521301,133.590317 895.963501,135.134308 898.555359,138.889038 
	C900.178650,141.240707 901.880676,141.938248 904.862305,141.128143 
	C909.622986,139.834702 914.845215,141.869263 918.937134,139.298141 
	C921.016296,140.082520 920.519653,141.486710 920.900879,142.512939 
	C921.341675,143.699539 922.223083,144.521484 923.523865,144.433746 
	C924.646606,144.358047 925.392700,143.435425 925.408203,142.406250 
	C925.461548,138.860733 927.461426,139.467133 930.089844,139.404282 
	C939.734802,139.173615 947.980774,142.750259 955.776978,147.831360 
	C957.569214,148.999451 959.273987,150.404724 960.714966,151.979202 
	C962.105713,153.498917 963.047729,154.731888 965.634888,154.186508 
	C968.291382,153.626556 970.648804,155.607025 972.857178,157.061737 
	C973.443298,157.447815 973.967041,158.440704 973.950623,159.141647 
	C973.875122,162.359039 965.395813,167.073990 962.895935,165.039398 
	C959.409241,162.201782 955.159790,161.458847 951.071655,159.416977 
	C949.149658,163.632385 945.937317,165.397690 940.468140,163.689163 
	C942.854126,167.978516 947.093567,169.823486 946.520691,174.756729 
	C938.425171,175.050232 932.366760,180.007034 925.714600,183.986649 
	C922.202637,186.087677 917.461975,184.512421 913.234070,185.307571 
	C906.495911,186.574844 903.050110,190.310257 904.313416,197.083786 
	C905.297607,202.360718 903.413391,206.164139 899.425720,209.647247 
	C896.626465,212.092239 894.705383,215.526291 892.285461,218.429764 
	C891.275269,219.641907 890.736084,221.458328 888.403870,221.721481 
	C886.393250,213.934357 881.642395,206.364090 887.665405,198.243149 
	C888.563965,197.031616 889.237610,195.620621 890.730469,195.081711 
	C897.776367,192.538345 900.763489,185.599777 905.961487,181.059326 
	C906.446350,180.635742 906.529663,179.879257 905.930786,179.113342 
	C904.044922,178.316559 902.612061,179.866943 901.002747,180.493683 
	C899.018188,181.266586 897.559387,181.917709 896.112061,179.292358 
	C894.656921,176.652847 891.995361,177.720413 889.890381,178.796036 
	C886.827759,180.361008 884.914246,183.133499 882.996704,185.884583 
	C880.475281,189.502121 877.610901,192.051987 873.170776,188.418839 
	C872.798157,188.113937 872.183228,187.706055 871.841064,187.821365 
	C862.709717,190.898270 851.011475,185.707794 844.243774,196.711578 
	C842.381958,199.738693 839.044250,201.836212 836.512573,204.483444 
	C835.442078,205.602829 833.666443,206.902298 835.184692,208.701981 
	C836.308472,210.034164 837.622864,211.270599 839.876099,210.844269 
	C846.813416,209.531616 848.681396,211.832626 847.992737,218.650513 
	C846.718994,231.261124 840.037415,240.895844 832.033630,249.951477 
	C830.250916,251.968536 828.466187,254.180618 825.303650,252.193298 
	C825.040283,252.027771 824.635559,251.911652 824.349548,251.983597 
	C818.385376,253.483994 818.017944,260.138123 813.884338,263.457367 
	C812.070740,264.913635 813.940308,267.089569 815.028503,268.781708 
	C819.314270,275.445953 818.228821,278.243958 810.521484,280.559082 
	C809.250671,279.960083 808.934082,278.815094 809.183594,277.627441 
	C809.887329,274.277039 809.988342,271.260986 806.009705,269.839417 
	C805.729431,269.739288 805.349548,269.401642 805.333374,269.153656 
	C804.882874,262.263672 801.048584,264.095184 797.453674,266.128326 
	C795.325500,265.428375 795.548462,261.360199 792.393005,263.066864 
	C790.561829,264.057190 789.061401,265.414917 789.418518,267.794800 
	C790.192749,272.954132 794.788940,269.218872 797.101196,270.964203 
	C797.340149,273.520844 795.331360,274.427643 793.776245,275.505646 
	C790.991638,277.435974 790.429993,279.557281 792.871155,282.088745 
	C794.871948,284.163513 795.485840,286.569885 795.283813,289.406830 
	C795.120239,291.704468 795.023621,294.083374 796.431885,296.176208 
	C797.166687,297.268402 797.077454,298.602173 796.334534,299.483612 
	C791.756592,304.914917 790.457397,313.443329 783.807068,316.410400 
	C777.518188,319.216217 771.610535,324.171997 763.713318,322.951019 
	C760.970642,322.527008 758.200928,324.172180 756.796692,327.001923 
	C755.490173,329.634705 756.601990,331.715332 758.329102,333.804138 
	C761.523376,337.667572 765.888916,340.815491 764.557068,347.118713 
	C763.508728,352.079834 762.529053,353.949890 753.943237,359.634674 
	C752.019836,356.579132 749.200378,354.313446 746.665161,351.765289 
	C745.185669,350.278259 743.530762,349.792969 741.694641,350.701416 
	C739.596924,351.739227 739.014343,353.693909 739.645874,355.795349 
	C740.554871,358.820038 741.296631,362.151947 743.558411,364.360779 
	C748.963989,369.639526 750.785400,375.708832 749.683472,383.142944 
	C749.311096,385.654480 750.755005,388.714020 753.609985,389.506561 
	C757.479187,390.580566 757.719482,392.864929 756.716858,395.955414 
	C755.541077,399.579437 756.655029,401.569122 760.511353,402.416504 
	C763.109070,402.987305 765.608582,403.751709 768.326904,403.772552 
	C770.111511,403.786194 772.368958,403.871216 773.580994,404.903290 
	C776.827271,407.667450 780.062256,409.054932 784.375916,407.872314 
	C785.881165,407.459564 787.737732,408.060822 788.843994,409.544495 
	C789.574646,410.524384 789.136658,411.514679 788.331848,412.196625 
	C786.710388,413.570618 785.216248,415.261261 782.674500,414.648682 
	C775.137512,412.832214 767.297546,411.825562 760.121033,409.078430 
	C751.797302,405.892090 745.389954,399.701813 740.714844,391.953888 
	C737.322693,386.332123 735.296143,379.866272 730.029541,375.393433 
	C728.370667,373.984589 725.957947,371.878082 727.879272,369.542816 
	C729.614441,367.434021 732.221924,369.091614 734.345764,369.938965 
	C736.381592,370.751190 737.048889,373.351013 739.639465,374.024689 
	C741.781799,370.699860 740.122925,367.504761 738.568726,364.949188 
	C736.460022,361.481781 735.681213,358.413055 736.443909,354.248657 
	C737.781921,346.942627 734.475586,341.651276 727.504761,338.026672 
	C725.868591,337.175934 725.652405,335.809357 725.676147,334.263580 
	C725.758545,328.903168 722.412964,325.290405 719.063416,321.825531 
	C716.667480,319.347015 711.292297,320.151184 708.980774,323.629791 
	C705.315430,329.145782 700.282532,333.238983 695.579163,337.681519 
	C693.366272,339.771667 692.193970,342.012390 692.267883,345.114197 
	C692.388916,350.196655 691.376160,354.995544 688.055786,359.119812 
	C685.441711,362.366974 684.037415,362.367676 682.657959,358.411591 
	C679.384338,349.023438 674.532715,340.146027 673.315796,330.081604 
	C672.939880,326.972595 671.715393,324.682129 668.195251,324.348419 
	C666.382751,324.176605 665.347778,323.143890 664.610229,321.378937 
	C661.581482,314.131073 656.432007,311.112396 648.758423,310.973938 
	C642.668884,310.864044 636.361023,310.986237 631.347778,306.378632 
	C630.673828,305.759186 629.532776,305.372711 628.599426,305.355988 
	C623.132935,305.257935 619.139893,302.661865 616.024597,298.366089 
	C614.902832,296.819153 613.472656,295.358185 611.455261,296.754700 
	C609.657471,297.999176 610.952393,299.680054 611.221252,301.281494 
	C612.130920,306.699493 617.151550,308.408722 620.462585,311.573486 
	C622.035828,313.077209 624.519470,312.187561 626.598999,311.184052 
	C629.490662,309.788696 636.131531,313.208954 638.574829,317.147675 
	C640.716919,320.600861 637.497253,321.947021 636.107788,324.262604 
	C630.053223,334.352783 619.304443,337.760620 610.004883,343.243195 
	C609.146912,343.749054 608.242920,344.197327 607.317688,344.565460 
	C598.741455,347.977631 597.026245,347.098480 595.443604,338.303345 
	C594.891724,335.236267 593.354492,332.624817 591.544983,330.303955 
	C584.886353,321.763611 583.187805,310.350891 575.311890,302.544952 
	C574.097290,301.341156 573.604065,299.156708 570.824585,299.683350 
	C571.065430,304.019409 574.067139,307.179718 575.585876,310.879059 
	C578.422913,317.789490 580.681213,324.900909 583.393127,331.837830 
	C586.462158,339.687775 593.006592,345.269867 597.795105,352.014526 
	C599.985413,355.099579 602.993652,355.068695 606.306641,353.963013 
	C609.086792,353.035187 611.656921,351.088898 614.930847,351.865662 
	C616.696350,353.900848 615.651611,356.068024 614.877808,357.939972 
	C611.282166,366.638031 606.522400,374.498169 599.237488,380.789948 
	C594.246399,385.100616 589.220032,389.425140 586.459717,395.890900 
	C584.019409,401.607056 585.058533,406.943604 586.624695,412.371185 
	C587.552734,415.587433 588.254028,418.788147 588.623596,422.119812 
	C589.255981,427.821777 587.597412,432.236053 582.470215,435.206238 
	C576.369080,438.740570 572.664612,443.494080 574.322876,451.142426 
	C575.031921,454.412323 574.019409,457.387848 571.294495,459.644775 
	C570.551392,460.260223 569.585693,461.167206 569.544556,461.981995 
	C569.185486,469.091339 563.897034,473.550812 560.359009,478.833801 
	C556.558350,484.508881 551.525452,488.704834 543.722839,487.632050 
	C541.778015,487.364685 539.637024,488.803314 537.544373,489.270599 
	C533.886292,490.087402 531.516479,488.834076 531.701111,484.783813 
	C531.869446,481.094055 530.704773,477.904449 528.785095,474.902161 
	C525.327271,469.494171 522.940613,463.698669 522.233582,457.272919 
	C521.537231,450.945221 520.053833,444.852264 517.389404,439.019379 
	C515.630859,435.169647 515.928711,430.966827 517.849243,427.386444 
	C524.513489,414.962585 518.618713,404.351166 512.812805,394.118958 
	C510.599701,390.218567 509.162689,387.194366 510.261505,382.702393 
	C512.169983,374.900391 510.455414,372.682159 502.506958,371.332764 
	C500.949493,371.068390 499.730957,370.399139 498.576263,369.364716 
	C494.019653,365.282715 490.964935,364.942963 485.769470,368.610016 
	C482.845093,370.674042 480.137970,371.989410 476.569641,370.593842 
	C475.704956,370.255707 474.572754,370.374146 473.612488,370.549927 
	C470.585236,371.104065 467.528015,373.484924 464.514160,371.306732 
	C459.842896,367.930695 454.317474,365.380157 451.375214,360.093353 
	C448.788635,355.445679 444.276123,352.034576 442.897400,346.647980 
	C442.690948,345.841461 442.254913,345.050964 442.236084,344.245758 
	C442.039185,335.820160 442.036926,327.313843 442.009827,318.980103 
	C441.986755,311.884521 448.754852,305.179291 454.539124,299.799347 
	C457.704834,296.854889 460.251129,293.885803 460.826477,289.422821 
	C461.373047,285.183014 465.771393,283.717224 467.724396,280.555267 
	C470.240631,276.481476 473.577118,277.212158 477.297058,277.638031 
	C483.204468,278.314423 488.100342,274.646118 493.539948,273.233673 
	C498.133362,272.040924 502.665070,271.680450 507.328125,271.468567 
	C511.901245,271.260773 513.911499,273.537933 513.801086,277.673737 
	C513.669373,282.608063 516.071350,285.077728 520.630371,285.829956 
	C524.060791,286.395996 526.600281,288.704529 529.574524,290.157318 
	C532.576294,291.623566 535.082031,292.237091 536.837097,288.204620 
	C538.182434,285.113434 541.504761,284.429932 544.109314,285.698944 
	C548.210388,287.697144 552.794189,287.823975 556.850037,289.870911 
	C561.648071,292.292450 566.218933,289.114349 571.268127,288.539764 
M588.783569,256.634003 
	C590.913574,254.055969 591.321594,251.071365 588.350586,249.353165 
	C584.353943,247.041824 580.763794,244.718994 580.204712,240.052505 
	C578.331726,239.929764 577.648315,240.591827 576.991882,241.407623 
	C573.279541,246.021378 573.293396,245.998611 570.202576,241.349014 
	C568.234924,238.388992 565.896606,238.755142 563.419128,240.714661 
	C558.543762,244.570602 556.456726,252.516785 558.797913,258.658691 
	C561.456848,258.419067 563.987183,257.576508 566.304810,256.296539 
	C570.273682,254.104614 574.021118,253.718887 578.058472,256.291016 
	C581.158630,258.266052 584.666260,258.333557 588.783569,256.634003 
z"/>
<path fill="#000000" opacity="1.000000" stroke="none" 
	d="
M262.034821,157.969193 
	C261.138214,158.383652 259.473419,158.777451 259.461609,159.215744 
	C259.311707,164.786514 253.755325,164.517761 251.132202,167.275925 
	C246.284531,172.373154 240.869598,177.351547 240.342392,185.139069 
	C240.208466,187.117416 240.844925,188.769669 242.670044,189.761810 
	C244.504532,190.759003 245.886719,192.091049 246.407166,194.197617 
	C246.658005,195.212845 247.181900,196.133499 248.360764,196.165543 
	C253.028671,196.292435 256.075775,199.747375 259.910950,201.571304 
	C266.392944,204.654007 273.870453,206.148758 274.234222,215.635666 
	C274.295563,217.235214 276.332062,220.351242 279.320312,219.001556 
	C282.239777,217.682953 281.815948,215.020096 280.798462,212.517914 
	C279.138550,208.436035 279.743164,205.767303 284.185181,203.437469 
	C288.792847,201.020798 288.729736,195.883209 284.732635,192.324173 
	C283.214020,190.971985 282.123138,189.744232 283.099792,187.658890 
	C285.018097,183.563126 285.574066,179.438705 282.874329,175.203918 
	C287.269196,172.259857 292.335419,173.650116 295.025177,175.263382 
	C299.315796,177.836807 305.599121,179.588699 306.127045,186.395157 
	C306.334106,189.064774 308.228241,190.679565 310.559021,191.221878 
	C312.701996,191.720474 314.233032,190.087311 315.457184,188.406082 
	C316.407410,187.101044 316.471771,185.168381 319.031097,184.087509 
	C320.683228,189.668228 327.081421,192.650101 326.673798,199.474228 
	C326.609161,200.556320 327.288330,201.589447 328.209930,201.873459 
	C333.267395,203.432098 334.772339,209.020584 339.138184,211.332550 
	C340.910339,212.271027 341.200775,214.284988 340.877319,215.718582 
	C339.708679,220.898163 341.749146,224.389069 345.803986,227.294434 
	C347.917725,228.808960 348.504303,231.465790 349.403259,233.746552 
	C350.479645,236.477570 349.059509,237.726349 346.426392,236.807983 
	C342.654144,235.492325 339.085999,234.524811 334.880951,235.100677 
	C331.350159,235.584213 330.951263,232.627060 332.356049,229.940811 
	C333.878723,227.029236 335.761871,224.302979 336.244995,221.054810 
	C334.978210,219.825821 333.815277,220.163361 332.977325,221.046722 
	C329.344116,224.876816 324.982452,225.287994 320.103455,224.285889 
	C316.319458,223.508667 312.999359,224.346283 310.713531,227.930573 
	C312.931824,229.602448 314.965973,227.287994 316.814392,228.484985 
	C320.411804,241.822693 320.411804,241.822693 328.039001,239.439087 
	C327.694122,242.773773 327.694122,242.773773 316.901367,246.746017 
	C315.519928,246.121475 315.647552,242.637054 313.126587,244.094452 
	C309.560608,246.155975 303.962250,245.326050 302.639709,250.505859 
	C301.790070,253.833374 300.382233,255.835327 296.966339,256.507568 
	C295.174988,256.860107 294.533569,258.540497 293.771759,260.077179 
	C291.402527,264.856293 286.003815,267.962311 287.351898,274.881042 
	C287.888275,277.633728 283.692688,280.102417 281.082153,282.197998 
	C273.698914,288.124847 272.890656,291.030457 276.121338,299.910156 
	C277.502991,303.707672 277.502991,303.707672 276.918243,307.889801 
	C272.844391,307.535065 272.410889,304.053833 271.346802,301.329803 
	C270.558777,299.312469 270.310059,296.280945 268.151123,296.049316 
	C263.689972,295.570587 259.125610,289.931702 256.469879,292.107300 
	C251.517410,296.164459 246.499008,294.373535 241.594070,295.477783 
	C235.770935,296.788757 233.503174,300.867157 233.286087,306.854767 
	C233.220291,308.669434 232.935104,310.494781 232.564499,312.276550 
	C231.025146,319.677307 235.506744,324.664917 239.811752,329.463074 
	C241.835129,331.718231 247.424179,329.116150 249.651459,325.349182 
	C252.440475,320.632202 253.820969,320.077881 259.104065,321.743530 
	C258.654236,324.788452 258.404572,327.932678 257.683289,330.964752 
	C256.911896,334.207245 258.173218,335.505768 261.194183,336.208740 
	C268.747772,337.966492 269.535400,339.189056 269.056610,347.202789 
	C268.589417,355.022339 270.885681,357.211517 278.610901,356.410828 
	C279.575867,356.310883 280.752899,356.257385 281.531281,356.704895 
	C284.802185,358.585266 286.844696,356.979462 288.721619,354.515076 
	C290.388672,352.326263 292.776703,351.091675 295.130280,349.838318 
	C295.856354,349.451660 297.160614,348.786102 297.381348,349.020203 
	C300.624969,352.460632 305.600311,349.398285 309.054169,352.320251 
	C311.562561,354.442322 314.902985,354.983826 317.990479,353.996582 
	C321.235992,352.958801 323.802551,354.049225 325.677185,356.141083 
	C328.519135,359.312317 332.467987,360.878357 335.473633,363.749695 
	C337.320068,365.513641 339.732513,366.219330 342.236237,366.727173 
	C349.639893,368.228882 354.649658,373.450012 355.581573,380.975555 
	C356.129120,385.397003 358.601929,387.295044 362.702393,387.486359 
	C364.240173,387.558105 366.051361,387.370972 366.880463,388.633636 
	C369.546417,392.693787 373.450165,393.391663 377.778107,393.189728 
	C383.736969,392.911713 387.480377,397.767517 392.539642,399.686859 
	C396.146515,401.055237 395.701447,405.519226 394.849579,409.057495 
	C394.331329,411.210144 392.772614,412.812439 391.567871,414.610291 
	C388.174896,419.673615 384.966980,424.510986 385.041351,431.322601 
	C385.109833,437.595673 381.527710,443.351776 378.818207,449.051361 
	C378.094543,450.573700 376.463104,451.806458 374.861755,451.869263 
	C370.199829,452.052185 367.221863,455.677490 363.198578,457.181335 
	C359.867767,458.426270 358.303436,461.682404 358.534943,465.320160 
	C358.852875,470.316071 356.906342,473.967621 352.565155,476.320984 
	C350.518036,477.430756 350.280914,479.501068 349.632629,481.329132 
	C347.941254,486.098267 345.825684,490.281677 339.795624,490.300934 
	C337.122070,490.309448 337.203491,492.151154 337.278900,494.155945 
	C337.528351,500.786011 335.358337,503.097168 328.777893,503.448242 
	C328.279968,503.474823 327.774017,503.449554 327.285492,503.530701 
	C326.530029,503.656189 318.038055,512.948059 318.315094,513.543579 
	C320.121399,517.426636 316.138245,519.460510 315.561279,522.554077 
	C315.532654,522.707581 315.432159,522.894409 315.306763,522.976379 
	C310.936523,525.834839 309.254456,529.061646 313.205414,533.712158 
	C314.161041,534.836975 312.825409,536.460449 311.863007,537.693237 
	C302.485199,549.706238 302.518524,550.157227 312.762268,561.374939 
	C313.054260,561.694702 313.057831,562.277832 313.270111,562.985596 
	C310.305145,564.539795 307.205841,564.790100 304.146179,563.925171 
	C301.823273,563.268494 299.646240,562.047485 301.177338,558.884155 
	C302.396149,556.366028 301.260498,555.004395 299.055206,553.676147 
	C290.921539,548.777100 288.941376,543.311157 290.322906,533.478333 
	C290.733368,530.557007 291.403809,528.287903 293.160614,525.977295 
	C294.678772,523.980408 295.573914,521.081421 294.622437,518.838928 
	C291.669006,511.877930 294.845215,504.751190 293.529633,497.778839 
	C293.033081,495.147308 295.970001,493.562622 296.528595,491.083618 
	C298.897034,480.572510 300.796356,469.978668 300.894562,459.188019 
	C300.937561,454.462311 302.742493,450.113739 302.809601,445.382751 
	C302.913055,438.089233 299.719757,433.208466 293.269135,430.482941 
	C289.735870,428.990051 288.237488,426.417633 286.476959,423.175537 
	C282.852631,416.501190 281.561218,408.602600 275.982941,402.967041 
	C274.693176,401.664032 274.529510,399.932709 274.768250,398.278900 
	C275.794525,391.169312 275.864288,383.734802 281.177216,377.975342 
	C284.068573,374.840973 284.351624,370.997009 283.611511,367.170868 
	C282.969910,363.853851 282.485626,359.450226 277.054565,362.766998 
	C275.932617,363.452179 274.796234,362.660858 273.776794,362.102844 
	C268.874542,359.419312 263.698425,357.219391 261.342438,351.364594 
	C260.306641,348.790619 257.861816,346.935425 255.169464,345.755829 
	C250.937744,343.901733 246.315781,342.795319 243.085617,339.053772 
	C242.533234,338.413910 241.247574,338.090515 240.325790,338.135498 
	C231.676010,338.557861 224.703400,334.133392 217.523727,330.341827 
	C214.369995,328.676392 212.325333,326.202087 212.656204,322.337830 
	C212.712723,321.677704 212.861496,320.896637 212.593811,320.356812 
	C208.384872,311.868622 201.384247,305.738861 195.012634,298.981293 
	C194.115204,305.540863 201.191742,308.435913 201.527618,314.299805 
	C199.574677,315.011719 198.424957,313.724731 197.953857,312.807648 
	C195.480347,307.992645 191.629593,303.999146 188.626465,299.681366 
	C184.072708,293.134125 183.389633,284.201721 175.009476,279.564178 
	C169.459229,276.492676 166.580276,269.264923 164.879395,262.874847 
	C162.918427,255.507690 162.256790,247.841599 164.299011,240.165131 
	C165.546066,235.477737 162.302887,232.382095 159.442581,229.321671 
	C157.498276,227.241348 154.145920,226.193924 156.113983,221.835709 
	C156.785873,220.347809 154.704330,217.109741 153.174911,215.252762 
	C150.850449,212.430450 146.891464,210.945145 146.965271,206.292908 
	C146.983734,205.128662 145.094376,205.253494 143.934814,205.271957 
	C142.619934,205.292877 141.302292,204.814178 141.431824,203.456589 
	C141.857574,198.994476 138.234085,197.677048 135.489838,196.338547 
	C132.649063,194.952972 132.796127,193.446487 133.811127,191.118927 
	C132.129486,190.408005 130.159683,191.204849 128.712357,189.676895 
	C125.435028,186.217041 120.877487,185.303314 116.522034,184.504242 
	C112.357010,183.740097 108.649872,181.859833 104.692322,180.757080 
	C99.941704,179.433380 99.536797,186.913971 94.538712,186.474579 
	C92.355965,184.413330 94.769577,182.456192 95.309097,179.548798 
	C91.115593,181.864639 88.986183,184.903809 86.794197,188.455765 
	C82.177010,195.937561 75.694855,201.501434 65.978607,204.729324 
	C68.026360,200.535385 71.236740,199.623291 73.576157,197.782578 
	C75.706299,196.106552 77.346657,194.340576 76.635834,191.513977 
	C75.897423,188.577652 73.232407,189.360245 71.216225,189.191315 
	C65.745667,188.732925 58.152294,182.867264 56.637630,177.777817 
	C55.886944,175.255432 59.232151,171.339310 62.642933,170.747589 
	C68.011559,169.816238 68.848083,168.225006 66.585724,162.692673 
	C61.194778,164.690628 55.654816,166.459305 52.337479,158.959869 
	C55.637169,156.376602 58.514107,152.547333 63.695557,156.242981 
	C64.965302,157.148636 66.927292,156.998428 68.287598,154.799454 
	C64.127426,151.561646 59.944183,148.305878 55.357220,144.735916 
	C62.210304,140.364075 67.969246,134.953506 75.400543,131.918335 
	C79.420006,130.276672 83.494171,130.998184 87.144493,131.845383 
	C98.762436,134.541794 110.517708,136.251907 122.267822,138.102249 
	C123.798439,138.343277 125.085953,139.855606 126.619965,140.405640 
	C129.595810,141.472626 132.415482,144.577744 135.800247,140.352753 
	C136.910583,138.966812 140.153091,138.948120 142.432678,138.901932 
	C150.172989,138.745102 150.175064,138.847168 154.763855,134.368958 
	C158.618439,139.191711 163.978485,138.902344 169.370850,138.457825 
	C171.479950,138.283981 173.210083,139.443466 175.102966,140.023926 
	C178.416977,141.040192 181.641434,142.599915 185.273270,141.615936 
	C183.429688,135.963852 180.305435,131.150070 176.724609,126.817123 
	C175.002502,126.632584 174.473022,127.818466 173.657196,128.599716 
	C169.070114,132.992477 163.444489,132.303696 160.268890,126.966461 
	C159.503387,125.679871 159.856430,124.393242 160.371002,123.131927 
	C161.555771,120.227867 162.840454,117.462646 163.027573,114.139816 
	C163.215515,110.802292 166.493607,111.020813 168.906693,110.956497 
	C173.546005,110.832840 177.679245,113.690010 182.389877,113.468445 
	C182.949829,113.442101 183.555771,114.047295 184.114838,114.400223 
	C194.119171,120.715942 200.423676,124.348251 210.226288,116.712601 
	C211.561279,115.672745 212.963760,115.489838 214.359268,116.498215 
	C215.805008,117.542877 215.667068,118.982132 215.335602,120.552864 
	C213.808701,127.788948 214.155441,129.227661 220.930191,132.654358 
	C225.770309,135.102524 223.317276,138.525269 222.789001,141.449051 
	C222.265778,144.344894 219.132599,144.604431 217.087570,143.733185 
	C210.899734,141.097046 205.271271,142.518890 199.460541,144.867203 
	C196.254272,146.162964 193.364517,144.015945 190.492294,142.866180 
	C187.689117,146.936096 188.222733,148.044495 192.978867,148.574799 
	C197.303162,149.056946 202.043289,147.166183 206.027145,151.157135 
	C207.618591,148.659714 207.334198,145.433578 210.062408,143.256119 
	C213.145233,145.951294 216.967621,147.427734 221.054489,147.835266 
	C224.292740,148.158188 227.748489,148.793549 230.577118,146.222260 
	C232.121735,144.818161 233.769333,145.487350 235.220230,146.274414 
	C238.291412,147.940430 240.793350,146.358826 242.069046,144.178467 
	C243.397751,141.907440 241.933578,139.379028 239.847443,137.705002 
	C238.828720,136.887527 237.390671,136.547745 236.871216,135.177872 
	C235.757553,132.240875 236.894333,129.538940 239.100052,128.074417 
	C241.537018,126.456390 243.386551,128.718079 244.658005,130.686691 
	C246.177551,133.039398 247.292221,135.661041 248.885635,137.955505 
	C249.692856,139.117859 251.179626,140.603165 252.337906,140.585022 
	C256.652710,140.517441 257.550293,143.275330 258.226410,146.555267 
	C258.343628,147.124054 258.915955,147.599014 259.351013,148.221680 
	C262.682709,146.936661 263.952057,143.889664 264.828003,141.319092 
	C266.011780,137.845291 262.591309,137.608734 260.222290,136.994583 
	C256.909607,136.135773 251.702728,130.237228 251.626617,126.752769 
	C251.519882,121.868027 254.394135,118.744835 258.505463,116.612923 
	C260.020386,115.827354 261.731628,115.277214 263.296234,116.180908 
	C265.462646,117.432182 267.434082,116.878128 269.507751,116.107635 
	C273.102875,114.771828 275.694122,115.621735 276.860809,119.555733 
	C277.864044,122.938469 280.061249,123.555168 283.035645,122.045189 
	C285.975006,120.552986 288.431061,121.159264 290.716461,123.447029 
	C294.818970,127.553780 300.570190,128.927689 305.262299,132.056580 
	C308.505249,134.219086 313.439819,135.259048 311.576019,141.109589 
	C310.916504,143.179871 312.447815,144.380264 314.119507,144.740707 
	C318.927826,145.777512 321.783661,149.845490 325.868835,151.991928 
	C328.162903,153.197281 327.334503,155.043854 326.088562,156.601700 
	C323.731232,159.549042 320.580475,161.240356 316.455139,161.890182 
	C318.534821,166.566406 318.745667,170.131561 314.632599,174.100143 
	C311.901093,176.735687 310.300873,177.042358 307.609283,175.477921 
	C305.025116,173.975937 302.184296,172.646591 300.121185,170.578171 
	C296.783783,167.232178 293.913513,163.837631 288.359131,165.407532 
	C286.536682,165.922623 284.048645,165.214462 283.622620,162.772324 
	C283.171173,160.184647 285.495819,159.048843 287.363190,158.994873 
	C292.395630,158.849411 292.624542,153.029526 296.714294,151.537949 
	C297.981781,151.075668 296.872375,147.509811 294.996002,146.043900 
	C293.690765,145.024185 291.998322,144.446640 290.835358,143.307571 
	C285.944641,138.517426 280.616333,135.622543 273.356140,139.007111 
	C274.424011,141.708328 272.936371,144.898865 273.627106,148.103226 
	C274.339539,151.408096 272.612579,152.760223 269.643433,153.782623 
	C267.066071,154.670074 263.687653,154.192780 262.073151,157.668930 
	C262.001953,157.999466 262.034821,157.969193 262.034821,157.969193 
z"/>
<path fill="#000000" opacity="1.000000" stroke="none" 
	d="
M401.467041,151.380829 
	C398.238434,155.254807 395.485229,158.655746 389.746918,158.151184 
	C387.304291,157.936401 383.493073,159.971146 382.759125,162.819107 
	C381.181305,168.941772 376.920441,173.922180 376.171356,180.408676 
	C375.624207,185.146194 373.158752,186.052933 368.661255,184.370972 
	C362.203094,181.955750 356.203522,179.510498 354.447510,171.427032 
	C353.696472,167.969803 350.918793,164.816528 349.255280,161.377151 
	C344.449127,151.440216 344.398254,149.669571 350.938751,142.122131 
	C342.590607,138.974106 342.190247,137.656754 347.814453,131.822418 
	C347.759216,131.507019 347.755249,130.942780 347.629669,130.914276 
	C342.136993,129.667511 341.829071,125.696754 341.463379,120.931953 
	C340.722260,111.273544 328.019775,100.728333 317.499908,103.779015 
	C313.989716,104.796928 309.846558,105.205933 306.410767,102.706940 
	C303.645172,100.695381 301.410919,98.397682 304.545197,94.991631 
	C304.252594,94.596680 304.117920,94.276169 303.876801,94.111092 
	C301.629944,92.572762 297.899994,92.111183 297.963226,88.731888 
	C298.035950,84.848434 302.324249,86.019554 304.454132,84.517731 
	C307.572510,82.318947 312.223846,84.033043 314.815216,80.533722 
	C310.868164,75.287071 311.456879,73.505722 317.401215,71.288971 
	C321.300568,69.834831 324.858917,68.600952 328.478699,65.518158 
	C332.232635,62.321144 339.031952,59.575829 345.438141,60.865387 
	C349.223480,61.627361 352.628601,62.613701 356.574341,60.196774 
	C359.950562,58.128723 362.913361,62.065300 366.560577,63.370132 
	C366.522858,61.376488 364.656860,59.720818 365.856934,57.880726 
	C367.062012,56.032940 368.991364,55.102161 370.938080,55.089703 
	C381.821747,55.020023 392.283997,51.326305 403.222534,51.614342 
	C411.769775,51.839417 419.422272,54.885338 427.068481,58.151829 
	C428.172638,58.623512 428.854279,59.461071 429.281281,60.673851 
	C431.349762,66.549232 434.998871,68.516533 440.920532,66.702370 
	C444.556854,65.588348 448.174133,66.041794 451.806335,66.175415 
	C453.172241,66.225670 454.467682,66.934441 454.679626,68.486855 
	C454.862518,69.826218 453.842834,70.641205 452.789673,71.168854 
	C448.637451,73.249245 444.590240,75.598656 439.999512,76.646103 
	C436.926636,77.347229 435.962219,79.075554 434.950958,82.275200 
	C433.384949,87.229912 435.636871,91.037346 436.079956,95.380760 
	C436.692596,101.386398 436.991180,107.621651 434.771332,113.824295 
	C432.834625,119.235596 430.369385,121.845467 424.717560,119.803123 
	C423.672699,123.070770 425.800049,124.265060 427.257996,125.721680 
	C432.440887,130.899780 432.375519,133.439453 427.245300,138.261993 
	C422.529388,142.695053 417.412018,145.864761 410.706421,146.545273 
	C407.411346,146.879669 403.719818,147.664780 401.467041,151.380829 
z"/>
<path fill="#000000" opacity="1.000000" stroke="none" 
	d="
M801.684998,431.559235 
	C804.218323,427.424622 807.386719,425.024048 812.132507,425.568481 
	C813.844604,425.764923 814.884705,424.998871 815.976685,423.805695 
	C820.565857,418.791229 829.079895,416.743896 835.053650,419.159790 
	C837.635132,420.203766 838.311157,421.986389 836.492493,424.240967 
	C834.903809,426.210358 833.641907,428.305115 835.695984,430.445557 
	C837.778259,432.615540 840.328247,434.532623 843.650269,433.374329 
	C846.524109,432.372284 846.778442,429.830688 846.726501,427.185730 
	C846.670898,424.355652 846.704895,421.519470 846.824829,418.691284 
	C847.003540,414.478912 845.731079,411.584900 840.943665,411.248901 
	C838.508057,411.077911 836.525879,410.074921 837.707764,407.089691 
	C839.417114,402.772400 836.672119,401.733887 833.456909,401.171448 
	C828.179932,400.248413 824.317261,397.476593 821.923889,392.722931 
	C820.813416,390.517212 819.250916,387.722534 822.333618,386.267944 
	C825.030334,384.995422 828.551453,385.837555 829.588928,388.803802 
	C831.288391,393.663055 833.421875,393.419281 836.779053,390.682495 
	C837.991150,389.694427 839.610291,389.671600 841.082825,390.272461 
	C849.070984,393.531586 857.507446,396.612366 863.045227,403.288055 
	C865.644531,406.421539 867.310120,410.725555 870.148071,414.093872 
	C871.152039,415.285431 870.184448,416.597015 868.508789,416.905884 
	C864.787964,417.591797 861.702698,417.035583 859.487061,413.417999 
	C858.369019,411.592621 856.802246,409.001648 853.950867,411.194244 
	C851.575500,413.020874 849.741272,414.609680 851.667725,418.566437 
	C858.271790,432.130188 866.025391,444.907196 875.283630,456.798401 
	C881.352539,464.593231 881.459961,478.073303 876.119507,486.403625 
	C873.758484,490.086395 871.516418,494.099274 871.256348,498.711212 
	C871.103760,501.417694 869.487061,502.252533 867.287598,503.610107 
	C860.787842,507.622009 854.286987,506.883423 847.411316,505.476715 
	C843.594910,504.695892 841.851807,502.546021 840.646179,499.104584 
	C839.383667,495.500366 837.739441,491.891754 832.625061,493.073303 
	C830.911926,493.469086 829.347839,492.477631 829.130432,490.958038 
	C828.191956,484.400269 822.405151,483.654724 818.255737,483.747559 
	C813.487061,483.854187 807.906982,484.209747 803.890137,487.927948 
	C801.272156,490.351288 798.376343,491.670563 794.856384,491.338898 
	C792.173584,491.086182 790.074707,492.231537 787.862732,493.485413 
	C785.126160,495.036621 782.386963,494.459198 779.884399,492.690125 
	C777.582764,491.063049 777.621277,488.932465 778.361084,486.462372 
	C779.286804,483.371674 777.666626,480.650299 776.798889,477.792175 
	C774.996582,471.856110 772.099487,466.440430 772.365967,459.666962 
	C772.819031,448.151489 777.354553,446.442047 788.179810,443.087555 
	C792.025757,441.895813 794.655273,441.050568 794.761292,436.632477 
	C794.816589,434.327209 795.906555,432.749695 798.555725,433.243683 
	C799.948608,433.503448 800.764648,432.846741 801.684998,431.559235 
z"/>
<path fill="#000000" opacity="1.000000" stroke="none" 
	d="
M241.054321,112.978752 
	C238.933197,112.067261 236.121964,111.455315 236.280014,108.594688 
	C236.492981,104.740067 240.546417,105.721184 242.971695,104.265747 
	C241.919876,102.475891 239.943268,103.015182 238.599457,102.260132 
	C236.641418,101.159966 234.514984,99.936775 235.372421,97.362953 
	C236.242264,94.751915 238.657623,94.928490 240.854736,95.571930 
	C242.928299,96.179184 244.934998,97.011505 246.999405,97.653893 
	C253.377380,99.638580 256.286011,97.552048 257.084167,90.396835 
	C255.043335,89.850883 253.182739,90.709496 251.282074,91.164818 
	C248.997925,91.712021 246.939774,91.413239 245.407425,89.498024 
	C243.297058,86.860405 241.781982,83.791145 237.821335,83.029900 
	C236.052856,82.690010 235.901627,75.040627 237.358368,72.870468 
	C239.484528,69.703087 245.018936,68.379875 248.485229,70.168427 
	C248.878845,70.371529 249.410233,70.307648 250.293839,70.420891 
	C250.476562,63.854927 255.053558,63.584949 260.126709,61.974865 
	C266.419403,59.977730 273.172241,60.554039 279.437439,56.979179 
	C282.678741,55.129715 288.939972,53.661747 294.021942,56.016449 
	C294.938904,56.441315 296.274933,56.037659 297.406006,55.912548 
	C307.414062,54.805538 320.812195,57.586773 326.802917,62.040932 
	C326.972412,62.985573 326.532074,63.922558 325.772308,64.088264 
	C316.260345,66.162849 310.648682,74.345207 302.672729,78.857742 
	C299.266083,80.785088 295.222290,80.445534 292.107819,82.626060 
	C293.241150,89.129395 292.783691,89.821304 286.199554,92.457306 
	C284.103912,93.296318 282.140228,94.550850 282.959473,97.222748 
	C284.175995,101.190224 281.700317,102.082428 278.825134,102.199028 
	C273.031616,102.433975 267.224579,102.349815 261.423035,102.362480 
	C259.800537,102.366020 258.141571,101.792229 255.785431,103.187187 
	C259.268738,105.220818 262.399261,105.180954 265.459991,103.973633 
	C270.207092,102.101089 274.224762,104.572075 278.449677,105.798187 
	C279.595215,106.130630 280.397552,107.185043 280.335999,108.483414 
	C280.263397,110.014984 279.128937,110.852905 277.834229,111.288071 
	C273.870056,112.620476 269.688110,113.448486 265.598572,113.196510 
	C259.689819,112.832458 253.593277,113.145119 247.960129,110.818985 
	C245.168655,109.666275 243.739883,112.232773 241.291168,112.826515 
	C241.017410,112.997704 241.054321,112.978752 241.054321,112.978752 
M264.020233,84.699440 
	C266.563629,84.596397 265.792908,83.493744 264.713989,82.343819 
	C263.404724,80.948410 261.588623,80.028778 261.530243,77.644966 
	C261.409302,72.707382 260.905548,72.534088 256.377197,75.355545 
	C257.680328,76.805931 258.978394,78.274071 260.302765,79.718079 
	C261.626801,81.161736 261.477081,83.545158 264.020233,84.699440 
z"/>
<path fill="#000000" opacity="1.000000" stroke="none" 
	d="
M799.244263,396.707947 
	C799.138367,400.614136 797.103088,400.822449 794.475708,399.829895 
	C791.131714,398.566620 786.966797,398.002960 787.711609,392.829376 
	C787.932434,391.294922 789.252625,389.777130 787.384705,388.031464 
	C784.929016,390.019775 783.949951,392.864349 782.582764,395.410980 
	C780.956909,398.439575 779.015259,399.195618 775.309753,398.554382 
	C766.000793,396.943420 763.402649,389.748077 762.129578,383.650452 
	C761.648315,381.345123 762.228271,379.278320 764.683044,378.329865 
	C771.582764,375.664032 777.376770,371.489929 782.141479,365.839050 
	C783.222961,364.556396 784.820190,363.873444 785.965454,365.417297 
	C787.497559,367.482666 791.363953,368.427734 789.742981,372.162384 
	C789.086914,373.673889 787.904846,374.994598 788.073364,376.762939 
	C788.369019,379.864410 788.978149,382.660004 793.229065,380.882202 
	C795.316284,380.009308 797.489380,380.504333 799.636902,380.554779 
	C801.312561,380.594208 803.407471,378.925659 804.484009,381.360138 
	C805.390503,383.410278 803.412109,384.612122 802.484192,386.113739 
	C800.558899,389.229279 798.581360,392.352631 799.244263,396.707947 
z"/>
<path fill="#000000" opacity="1.000000" stroke="none" 
	d="
M526.431396,100.579521 
	C522.131409,98.155235 521.627075,95.038124 524.916382,90.409187 
	C518.828918,91.030479 515.197571,89.173714 514.167969,83.541901 
	C513.639282,80.650337 514.832153,78.880325 517.180725,79.009781 
	C520.426270,79.188675 523.322327,77.844727 526.453857,77.828827 
	C528.945984,77.816185 531.266052,77.704689 532.954346,75.120079 
	C534.287231,73.079590 536.954590,73.376503 538.982544,73.968567 
	C543.177856,75.193375 547.386536,75.902412 551.753174,75.923782 
	C553.240112,75.931061 554.862122,76.311768 555.487793,77.937973 
	C556.145386,79.646988 554.686401,80.608536 553.852844,81.822304 
	C551.799072,84.812881 547.494934,84.536888 545.279663,87.633347 
	C545.776428,88.301361 546.065796,88.932526 546.553406,89.302544 
	C548.267029,90.603050 550.672424,91.715706 548.902222,94.377411 
	C547.393188,96.646385 544.368713,97.218338 542.700012,95.676781 
	C536.953125,90.367805 533.986694,93.739380 531.013672,98.607903 
	C530.137817,100.042122 528.675964,100.996582 526.431396,100.579521 
z"/>
<path fill="#000000" opacity="1.000000" stroke="none" 
	d="
M602.163452,428.283630 
	C605.393127,426.816345 606.656494,423.948242 608.614929,421.739044 
	C610.622192,419.474792 612.328796,419.774475 613.449036,422.550201 
	C614.385315,424.870239 615.194885,427.353210 614.443726,429.821472 
	C611.601318,439.161011 609.916443,448.860565 605.941101,457.840332 
	C604.975281,460.021881 604.133484,462.957458 601.139526,462.977692 
	C597.984009,462.999054 596.959961,460.081146 595.769043,457.736359 
	C593.721924,453.705902 592.768311,449.621735 595.612183,445.500214 
	C597.010742,443.473358 596.252930,441.435272 595.754456,439.304260 
	C594.267395,432.947784 595.559448,430.748230 602.163452,428.283630 
z"/>
<path fill="#000000" opacity="1.000000" stroke="none" 
	d="
M850.594910,243.091095 
	C852.980530,244.951172 855.138367,246.326263 857.746460,247.199783 
	C860.870361,248.246033 860.926758,250.425049 858.510010,252.402283 
	C855.915894,254.524658 852.824219,255.768005 849.144226,256.500793 
	C849.803284,260.908417 849.178833,265.218628 848.817078,269.558746 
	C848.026855,279.038147 841.533264,282.354370 834.438477,284.518280 
	C830.615417,285.684296 827.648865,287.335754 824.762573,289.759277 
	C823.414490,290.891174 821.769531,292.553253 819.956604,291.037231 
	C818.244141,289.605347 817.299744,287.054901 818.418396,285.175354 
	C821.054810,280.745728 823.252563,275.843018 829.836853,275.455994 
	C835.139771,275.144257 841.493469,268.333771 842.780396,263.242859 
	C844.287537,257.280640 846.058838,251.385574 847.669800,245.448959 
	C848.045898,244.063095 848.510437,242.907211 850.594910,243.091095 
z"/>
<path fill="#000000" opacity="1.000000" stroke="none" 
	d="
M622.748535,119.802574 
	C623.935791,118.374435 625.124695,117.347656 625.815979,116.054802 
	C631.239075,105.914001 640.386108,102.062531 651.134277,100.729462 
	C653.596008,100.424141 656.001770,99.686012 658.444885,99.206184 
	C660.350891,98.831856 662.876892,97.789047 663.740906,100.151077 
	C664.662354,102.670067 661.932434,103.360085 660.187866,104.055840 
	C654.154907,106.461868 648.228699,109.072754 642.449463,112.049706 
	C635.535461,115.611237 631.731506,123.255608 633.504761,130.866425 
	C634.116516,133.492096 633.337219,134.858612 630.690857,134.717636 
	C626.201233,134.478455 622.506104,132.065231 618.827698,129.814346 
	C617.222412,128.832031 617.700745,127.121979 618.526489,125.799240 
	C619.756104,123.829681 621.179016,121.980865 622.748535,119.802574 
z"/>
<path fill="#000000" opacity="1.000000" stroke="none" 
	d="
M803.750000,370.142914 
	C802.238281,368.835449 801.202820,367.350433 799.781189,366.654877 
	C797.360046,365.470306 796.500916,364.085083 797.732605,361.556671 
	C798.523987,359.932129 797.759521,358.294128 797.434937,356.690094 
	C797.305725,356.051514 796.574158,355.324158 796.742493,354.868195 
	C798.807678,349.274139 796.005554,346.125061 791.695496,343.071075 
	C789.674255,341.638824 790.786255,333.063263 792.817810,331.433105 
	C795.472717,329.302734 797.877625,330.971191 797.875244,333.473663 
	C797.870728,338.212341 800.722656,340.880127 803.291565,344.119720 
	C807.167236,349.007294 808.538940,355.108398 809.917419,361.032715 
	C810.752197,364.620667 807.272034,369.525238 803.750000,370.142914 
z"/>
<path fill="#000000" opacity="1.000000" stroke="none" 
	d="
M241.001251,113.010300 
	C242.978409,113.043076 244.973587,113.015503 246.964661,113.092941 
	C251.717331,113.277802 252.701355,115.226135 250.433929,119.507217 
	C248.301941,123.532646 244.152832,125.248459 240.549881,125.051727 
	C237.285049,124.873466 235.738846,126.231995 233.704559,127.758865 
	C229.474716,130.933655 221.223892,127.567741 220.413483,122.368202 
	C220.001312,119.723755 222.310684,118.522942 223.621307,117.077408 
	C227.855515,112.407372 233.101257,113.006927 235.222458,118.357201 
	C237.328339,116.992500 238.211563,114.345444 240.807556,113.205330 
	C241.054321,112.978752 241.017410,112.997704 241.001251,113.010300 
z"/>
<path fill="#000000" opacity="1.000000" stroke="none" 
	d="
M444.789825,153.835449 
	C449.256989,154.513000 452.146271,156.917480 452.453217,160.895798 
	C452.752533,164.775635 449.079559,165.865784 446.114075,166.938019 
	C441.853790,168.478394 438.044128,171.129166 432.812653,169.288498 
	C427.579437,167.447220 427.267029,162.242584 424.459473,158.866516 
	C422.992462,157.102448 427.036591,154.256989 429.280853,155.025284 
	C434.668243,156.869614 439.374390,154.309860 444.789825,153.835449 
z"/>
<path fill="#000000" opacity="1.000000" stroke="none" 
	d="
M185.961548,100.025177 
	C190.745941,98.613518 194.586197,101.448456 198.814713,102.891594 
	C200.438446,102.444916 200.022079,100.740753 200.662643,99.678406 
	C202.423004,96.758980 204.343338,96.237244 206.157303,99.494446 
	C207.122116,101.226891 208.058151,102.547958 210.274002,102.442520 
	C212.477173,102.337677 213.826294,103.447693 213.745850,105.702499 
	C213.668350,107.875031 212.612885,109.969597 210.349976,109.987411 
	C204.902802,110.030312 199.906998,111.535088 194.963013,113.564911 
	C193.465164,114.179878 192.012726,113.665245 190.877930,112.471397 
	C190.421463,111.991158 190.018997,111.047379 189.569458,111.033310 
	C179.449875,110.716568 184.609726,105.024635 185.944473,100.346985 
	C185.996262,99.990959 185.961548,100.025177 185.961548,100.025177 
z"/>
<path fill="#000000" opacity="1.000000" stroke="none" 
	d="
M278.015503,321.759613 
	C274.931030,320.914307 272.252838,320.038513 269.377502,319.971405 
	C267.989838,319.939026 266.728851,319.149048 266.627716,317.577484 
	C266.540863,316.227509 267.644836,315.513641 268.762787,315.115570 
	C270.940460,314.340118 273.110138,313.404541 275.531006,314.146912 
	C280.819336,315.768585 285.510223,318.619507 290.327728,321.223389 
	C292.321869,322.301208 291.984467,324.763000 293.713715,326.429474 
	C297.272461,322.369476 301.042847,324.944733 304.787323,326.194183 
	C306.089661,326.628754 307.213135,327.442535 307.070221,329.066498 
	C306.950378,330.428192 305.931885,331.061615 304.748627,331.330292 
	C302.165680,331.916779 299.580994,332.611267 296.958801,332.862335 
	C295.553833,332.996857 293.066803,332.684387 292.778046,331.924133 
	C290.218445,325.185699 282.158051,326.635620 278.015503,321.759613 
z"/>
<path fill="#000000" opacity="1.000000" stroke="none" 
	d="
M923.773438,515.685547 
	C925.025330,511.943542 927.419495,510.856781 930.501404,512.381042 
	C934.015015,514.118774 932.502930,516.959656 931.123779,519.177246 
	C928.511963,523.376770 925.671936,527.447754 922.713928,531.413391 
	C921.042847,533.653625 918.742126,534.865601 915.727112,533.935486 
	C910.684326,532.379761 909.830505,529.622498 913.201416,525.545471 
	C914.815430,523.593323 916.776367,522.084961 919.033813,520.964539 
	C921.191528,519.893616 922.959351,518.478394 923.773438,515.685547 
z"/>
<path fill="#000000" opacity="1.000000" stroke="none" 
	d="
M726.140137,80.481216 
	C724.580139,81.390968 723.230164,82.483681 721.805847,81.165031 
	C720.386353,79.850784 721.347839,78.383331 721.931641,77.036156 
	C722.460266,75.816383 723.044373,74.614563 723.690918,73.453194 
	C725.205872,70.731934 727.488342,68.853973 730.611816,69.977814 
	C733.761780,71.111191 736.005554,73.366463 734.563354,77.252464 
	C737.051208,78.426056 741.173706,76.962189 741.356140,81.005753 
	C741.466064,83.440285 739.760437,86.135170 737.183594,86.642326 
	C733.730896,87.321869 729.997437,86.680710 727.577942,83.875923 
	C725.442383,81.400192 728.612793,80.031807 729.823730,78.226501 
	C728.137451,78.225494 727.470215,79.575310 726.140137,80.481216 
z"/>
<path fill="#000000" opacity="1.000000" stroke="none" 
	d="
M858.317017,107.136734 
	C857.881592,110.645805 856.252319,111.858688 852.877441,111.747955 
	C849.969849,111.652565 847.043274,112.807693 844.094360,113.108322 
	C841.217346,113.401611 838.333984,113.133636 836.654541,110.225410 
	C835.487061,108.203667 836.258301,106.327721 837.505798,104.656525 
	C839.317017,102.229965 841.669678,101.644531 844.584534,102.556595 
	C847.447937,103.452560 850.566162,102.527443 853.457642,103.650627 
	C855.304749,104.368164 857.395264,104.604332 858.317017,107.136734 
z"/>
<path fill="#000000" opacity="1.000000" stroke="none" 
	d="
M854.702209,213.321198 
	C854.726746,217.530640 854.814209,221.324936 856.165222,224.981979 
	C857.626099,228.936462 854.559509,231.892639 853.496887,235.193069 
	C852.742249,237.537247 850.562866,236.463211 849.546753,234.415604 
	C848.543884,232.394608 848.719299,230.204254 848.728455,228.053329 
	C848.747498,223.570282 848.768250,219.086044 848.896057,214.605362 
	C848.939880,213.067764 849.494507,211.616119 851.145752,211.052048 
	C852.915649,210.447449 853.995422,211.293320 854.702209,213.321198 
z"/>
<path fill="#000000" opacity="1.000000" stroke="none" 
	d="
M261.985901,158.014984 
	C268.533875,157.426758 271.657806,163.082153 276.297333,165.965591 
	C277.192322,166.521820 277.299164,167.678101 276.616150,168.624481 
	C275.843384,169.695221 274.666046,170.023895 273.519257,169.553925 
	C271.007111,168.524384 268.929626,168.881821 266.592896,170.382858 
	C264.347412,171.825241 262.089813,170.404388 260.278046,168.870850 
	C258.489685,167.357147 259.411957,165.618347 260.130615,163.885925 
	C260.826172,162.209198 261.308441,160.443985 261.959595,158.343414 
	C262.034821,157.969193 262.001953,157.999466 261.985901,158.014984 
z"/>
<path fill="#000000" opacity="1.000000" stroke="none" 
	d="
M186.011322,99.971786 
	C182.334930,101.250320 178.672562,102.641075 174.940231,103.808090 
	C172.951385,104.429955 170.988098,103.780159 169.280807,102.675163 
	C168.181931,101.963943 167.564987,100.454201 168.851883,99.847404 
	C173.323502,97.738930 176.373428,92.775085 182.357346,93.581947 
	C186.243683,94.105980 187.931290,95.364021 186.076904,99.665009 
	C185.961548,100.025177 185.996262,99.990959 186.011322,99.971786 
z"/>
<path fill="#000000" opacity="1.000000" stroke="none" 
	d="
M742.204590,85.212517 
	C744.977234,83.017372 753.444275,83.506485 755.524536,85.765366 
	C757.244202,87.632774 757.178345,89.488922 754.713379,90.540627 
	C751.169373,92.052704 747.355469,92.784660 743.533752,92.677872 
	C739.557739,92.566772 739.132385,90.349800 742.204590,85.212517 
z"/>
<path fill="#000000" opacity="1.000000" stroke="none" 
	d="
M229.073181,89.078163 
	C228.725067,90.659485 227.866196,92.042747 226.821075,91.769791 
	C222.068924,90.528732 216.504135,91.489861 212.975143,86.735062 
	C210.864731,83.891609 211.353485,82.363602 214.838516,81.752769 
	C219.564850,80.924362 226.386581,84.247025 229.073181,89.078163 
z"/>
<path fill="#000000" opacity="1.000000" stroke="none" 
	d="
M933.159668,509.952942 
	C927.775452,504.600189 934.477661,502.527618 934.853088,498.549988 
	C937.734375,499.857208 939.066895,502.070068 941.554260,502.364075 
	C942.595581,502.487183 943.189575,503.381409 943.153259,504.563721 
	C943.092041,506.553070 937.120300,514.009827 934.893494,514.796814 
	C933.217285,513.684143 934.161621,511.679352 933.159668,509.952942 
z"/>
<path fill="#000000" opacity="1.000000" stroke="none" 
	d="
M801.309937,408.300232 
	C802.214050,408.474243 802.709778,408.538055 803.199280,408.633728 
	C805.351562,409.054504 808.476013,406.973297 809.525757,409.791107 
	C810.667603,412.855927 806.944885,413.533569 805.295044,415.131226 
	C803.326599,417.037354 801.007751,417.832458 798.913635,415.053040 
	C797.565857,413.264099 795.358887,413.416443 793.535400,412.702362 
	C792.425598,412.267761 791.204773,411.771362 791.207703,410.407471 
	C791.211243,408.754028 792.630249,408.107727 793.942749,408.035095 
	C796.251160,407.907318 798.579041,408.129272 801.309937,408.300232 
z"/>
<path fill="#000000" opacity="1.000000" stroke="none" 
	d="
M864.897217,512.842651 
	C867.319702,517.769958 864.490540,520.646606 861.402954,523.269043 
	C859.694275,524.720337 857.787476,524.231445 856.843201,522.276245 
	C855.705261,519.920227 854.736328,517.409851 854.198425,514.859924 
	C853.770325,512.830444 855.472473,511.814056 857.275879,511.879425 
	C859.715149,511.967834 862.241699,511.452393 864.897217,512.842651 
z"/>
<path fill="#000000" opacity="1.000000" stroke="none" 
	d="
M627.638000,72.029404 
	C633.288879,69.625877 638.891602,70.949654 644.428833,71.057961 
	C645.783081,71.084457 646.963379,72.013680 646.947205,73.614365 
	C646.931213,75.182419 645.788330,75.972778 644.434204,76.259514 
	C643.332092,76.492897 642.095459,76.658386 641.030212,76.397568 
	C637.047180,75.422325 633.215637,73.783134 628.935120,74.385056 
	C627.881897,74.533165 627.224731,73.547211 627.638000,72.029404 
z"/>
<path fill="#000000" opacity="1.000000" stroke="none" 
	d="
M232.783096,107.919395 
	C229.863464,108.949165 222.992630,104.967415 222.948547,102.481613 
	C222.905670,100.065361 224.496216,98.909660 226.804321,98.991966 
	C231.962479,99.175903 234.168289,102.289375 232.783096,107.919395 
z"/>
<path fill="#000000" opacity="1.000000" stroke="none" 
	d="
M861.424316,110.893974 
	C859.825806,106.614738 861.184387,105.255600 865.211670,106.377090 
	C867.107483,106.905022 869.032410,107.328476 870.944153,107.799438 
	C872.310120,108.135963 873.546509,108.762856 873.547180,110.328735 
	C873.547852,111.857094 872.349915,112.727890 871.014343,112.967720 
	C867.705811,113.561836 864.428650,113.618240 861.424316,110.893974 
z"/>
<path fill="#000000" opacity="1.000000" stroke="none" 
	d="
M193.424225,87.346642 
	C196.037170,85.593391 198.636063,85.091011 201.324387,85.012825 
	C202.510452,84.978333 203.729782,85.239044 204.256119,86.489906 
	C204.785095,87.747108 204.134857,88.743462 203.211273,89.561478 
	C200.846008,91.656387 198.114792,92.791420 194.950409,92.130249 
	C192.291519,91.574699 191.024277,90.203903 193.424225,87.346642 
z"/>
<path fill="#000000" opacity="1.000000" stroke="none" 
	d="
M612.197632,77.238419 
	C609.322266,73.722389 613.049500,72.922264 614.410278,71.385887 
	C615.901184,69.702583 618.136780,69.139984 620.273804,70.225456 
	C622.033936,71.119484 621.789673,72.623466 620.610840,73.902786 
	C618.435791,76.263336 616.007568,78.150467 612.197632,77.238419 
z"/>
<path fill="#000000" opacity="1.000000" stroke="none" 
	d="
M231.912766,85.948631 
	C233.184219,85.527840 234.189850,85.061874 235.088821,85.216400 
	C237.838638,85.689034 241.182770,86.191360 240.842972,89.866112 
	C240.564850,92.873901 237.586975,92.792992 235.324127,92.364639 
	C231.997589,91.734932 229.857483,90.040421 231.912766,85.948631 
z"/>
<path fill="#000000" opacity="1.000000" stroke="none" 
	d="
M219.966965,106.934898 
	C218.842331,106.694122 217.948181,106.541168 217.368622,106.030899 
	C215.060425,103.998634 212.996887,101.621307 214.501846,98.350029 
	C215.385788,96.428627 217.404861,96.669456 218.634583,98.111855 
	C220.778366,100.626404 224.041275,103.126266 219.966965,106.934898 
z"/>
<path fill="#000000" opacity="1.000000" stroke="none" 
	d="
M820.189331,396.938843 
	C817.085144,399.697266 814.760437,397.312439 812.773254,395.810272 
	C810.915283,394.405823 812.405945,392.846649 813.984131,392.063751 
	C817.107117,390.514435 819.981262,392.633057 820.189331,396.938843 
z"/>
<path fill="#000000" opacity="1.000000" stroke="none" 
	d="
M810.450256,385.250122 
	C809.899475,382.562317 809.353943,379.830902 812.391846,379.184357 
	C814.286865,378.781067 815.806274,380.648193 815.956055,382.606262 
	C816.124329,384.806091 814.882812,386.408722 812.586426,386.835968 
	C811.680786,387.004517 811.065308,386.349731 810.450256,385.250122 
z"/>
<path fill="#000000" opacity="1.000000" stroke="none" 
	d="
M655.289062,70.503235 
	C657.584045,72.642715 657.217896,74.289536 654.673889,75.011589 
	C652.688354,75.575134 649.983093,76.029808 649.296814,73.354195 
	C648.640808,70.796463 651.061646,70.287247 653.050598,70.015984 
	C653.660461,69.932808 654.318115,70.199638 655.289062,70.503235 
z"/>
<path fill="#000000" opacity="1.000000" stroke="none" 
	d="
M928.652954,494.514221 
	C928.348511,492.525787 928.591309,490.941711 930.595581,491.082703 
	C932.581970,491.222504 933.676697,492.805237 934.086975,494.673218 
	C934.385254,496.031219 934.120178,497.516113 932.581665,497.839508 
	C930.364807,498.305420 929.492432,496.562256 928.652954,494.514221 
z"/>
</svg>